<?xml version="1.0" encoding="UTF-8" standalone="no"?>
<!-- Generator: Adobe Illustrator 16.0.0, SVG Export Plug-In . SVG Version: 6.00 Build 0)  -->

<svg
   xmlns:dc="http://purl.org/dc/elements/1.1/"
   xmlns:cc="http://creativecommons.org/ns#"
   xmlns:rdf="http://www.w3.org/1999/02/22-rdf-syntax-ns#"
   xmlns:svg="http://www.w3.org/2000/svg"
   xmlns="http://www.w3.org/2000/svg"
   xmlns:sodipodi="http://sodipodi.sourceforge.net/DTD/sodipodi-0.dtd"
   xmlns:inkscape="http://www.inkscape.org/namespaces/inkscape"
   version="1.1"
   id="Capa_1"
   x="0px"
   y="0px"
   width="342.508px"
   height="342.508px"
   viewBox="0 0 342.508 342.508"
   style="enable-background:new 0 0 342.508 342.508;"
   xml:space="preserve"
   sodipodi:docname="check.svg"
   inkscape:version="0.92.4 (5da689c313, 2019-01-14)"><metadata
   id="metadata895"><rdf:RDF><cc:Work
       rdf:about=""><dc:format>image/svg+xml</dc:format><dc:type
         rdf:resource="http://purl.org/dc/dcmitype/StillImage" /></cc:Work></rdf:RDF></metadata><defs
   id="defs893" /><sodipodi:namedview
   pagecolor="#ffffff"
   bordercolor="#666666"
   borderopacity="1"
   objecttolerance="10"
   gridtolerance="10"
   guidetolerance="10"
   inkscape:pageopacity="0"
   inkscape:pageshadow="2"
   inkscape:window-width="1920"
   inkscape:window-height="1017"
   id="namedview891"
   showgrid="false"
   inkscape:zoom="1.7506936"
   inkscape:cx="189.15523"
   inkscape:cy="255.45239"
   inkscape:window-x="1912"
   inkscape:window-y="-8"
   inkscape:window-maximized="1"
   inkscape:current-layer="Capa_1" />
<g
   id="g858">
	<path
   d="M171.254,0C76.837,0,0.003,76.819,0.003,171.248c0,94.428,76.829,171.26,171.251,171.26   c94.438,0,171.251-76.826,171.251-171.26C342.505,76.819,265.697,0,171.254,0z M245.371,136.161l-89.69,89.69   c-2.693,2.69-6.242,4.048-9.758,4.048c-3.543,0-7.059-1.357-9.761-4.048l-39.007-39.007c-5.393-5.398-5.393-14.129,0-19.521   c5.392-5.392,14.123-5.392,19.516,0l29.252,29.262l79.944-79.948c5.381-5.386,14.111-5.386,19.504,0   C250.764,122.038,250.764,130.769,245.371,136.161z"
   id="path856" />
</g>
<g
   id="g860">
</g>
<g
   id="g862">
</g>
<g
   id="g864">
</g>
<g
   id="g866">
</g>
<g
   id="g868">
</g>
<g
   id="g870">
</g>
<g
   id="g872">
</g>
<g
   id="g874">
</g>
<g
   id="g876">
</g>
<g
   id="g878">
</g>
<g
   id="g880">
</g>
<g
   id="g882">
</g>
<g
   id="g884">
</g>
<g
   id="g886">
</g>
<g
   id="g888">
</g>
<path
   style="fill:#44aa00;fill-opacity:1;stroke:none;stroke-width:1.08528411;stroke-miterlimit:4;stroke-dasharray:none;stroke-opacity:1"
   d="M 155.28294,341.51012 C 134.63796,339.54238 115.12297,333.93983 95.817024,324.43805 71.302295,312.37267 51.269013,295.75569 34.539488,273.61024 2.1048503,230.67538 -8.0069645,174.55564 7.3494921,122.70801 13.320389,102.54862 24.409106,81.32212 37.691268,64.626468 43.022685,57.92489 57.550134,43.349284 64.176193,38.053751 72.806241,31.156633 85.750471,22.959041 95.861669,17.987312 117.54714,7.32445 138.55831,1.8225654 162.13737,0.63267674 199.58398,-1.2570213 234.82336,8.3593422 265.52496,28.84579 c 10.02196,6.687409 15.94057,11.43777 24.20241,19.425184 41.07549,39.711124 59.48131,95.593616 49.99408,151.788666 -9.1001,53.90205 -43.99228,100.37809 -93.61736,124.69742 -19.26143,9.43928 -38.51048,14.83655 -59.97623,16.81683 -7.31612,0.67494 -23.44441,0.64159 -30.84492,-0.0638 z m -4.52857,-112.23911 c 2.56951,-0.84695 6.88793,-4.99338 49.52508,-47.55258 31.14976,-31.09282 47.07777,-47.38585 47.81378,-48.90953 3.46421,-7.17164 0.57246,-15.68311 -6.48981,-19.1019 -3.21551,-1.5566 -8.30536,-1.55564 -11.77859,0.002 -1.98182,0.88891 -11.88849,10.46538 -43.26251,41.82046 L 145.87023,196.197 130.01331,180.42084 c -17.18282,-17.09535 -17.47038,-17.3059 -23.56816,-17.25643 -5.08846,0.0413 -9.563816,2.94804 -12.174336,7.90726 -1.722174,3.27163 -1.666779,8.82811 0.1225,12.28834 1.445913,2.7962 39.085656,41.10243 43.223096,43.98846 4.12444,2.87695 8.36103,3.49682 13.13796,1.92226 z"
   id="path897"
   inkscape:connector-curvature="0" /></svg>