<?xml version="1.0" encoding="UTF-8" standalone="no"?>
<!-- Created with Inkscape (http://www.inkscape.org/) -->

<svg
   xmlns:dc="http://purl.org/dc/elements/1.1/"
   xmlns:cc="http://creativecommons.org/ns#"
   xmlns:rdf="http://www.w3.org/1999/02/22-rdf-syntax-ns#"
   xmlns:svg="http://www.w3.org/2000/svg"
   xmlns="http://www.w3.org/2000/svg"
   xmlns:sodipodi="http://sodipodi.sourceforge.net/DTD/sodipodi-0.dtd"
   xmlns:inkscape="http://www.inkscape.org/namespaces/inkscape"
   width="127mm"
   height="112mm"
   viewBox="0 0 127 112"
   version="1.1"
   id="svg1226"
   inkscape:version="0.92.4 (5da689c313, 2019-01-14)"
   sodipodi:docname="logocom.svg">
  <defs
     id="defs1220" />
  <sodipodi:namedview
     id="base"
     pagecolor="#ffffff"
     bordercolor="#666666"
     borderopacity="1.0"
     inkscape:pageopacity="0.0"
     inkscape:pageshadow="2"
     inkscape:zoom="0.70000001"
     inkscape:cx="209.21378"
     inkscape:cy="559.53911"
     inkscape:document-units="mm"
     inkscape:current-layer="layer1"
     showgrid="false"
     inkscape:window-width="1920"
     inkscape:window-height="1017"
     inkscape:window-x="-8"
     inkscape:window-y="92"
     inkscape:window-maximized="1" />
  <metadata
     id="metadata1223">
    <rdf:RDF>
      <cc:Work
         rdf:about="">
        <dc:format>image/svg+xml</dc:format>
        <dc:type
           rdf:resource="http://purl.org/dc/dcmitype/StillImage" />
        <dc:title></dc:title>
      </cc:Work>
    </rdf:RDF>
  </metadata>
  <g
     inkscape:label="Capa 1"
     inkscape:groupmode="layer"
     id="layer1"
     transform="translate(0,-185)">
    <g
       id="g1803"
       transform="matrix(0.03527778,0,0,-0.03527778,20.136081,124.49144)"
       style="fill:#000000;stroke:none">
      <g
         id="g1853"
         transform="matrix(0.25377267,0,0,0.25377267,124.59742,-767.52881)"
         style="fill:#000000;stroke:none">
        <g
           transform="translate(-1867.4125,-16373.267)"
           style="fill:#000000;stroke:none"
           id="g2473">
          <path
             style="fill:#b3b3b3;stroke:none"
             inkscape:connector-curvature="0"
             d="m 1020,2245 c -185,-49 -353,-149 -453,-270 -69,-84 -97,-136 -141,-265 -105,-310 -82,-542 65,-674 187,-168 592,-126 850,88 124,103 202,247 264,485 89,341 27,551 -186,630 -100,37 -272,40 -399,6 z m 262,-180 c 50,-17 119,-78 144,-127 22,-42 29,-142 15,-194 -25,-92 -147,-184 -245,-184 -110,0 -220,79 -250,179 -20,68 -20,94 0,160 41,139 194,214 336,166 z"
             id="path1793"
             transform="matrix(3.9405346,0,0,3.9405346,-490.98058,3024.4739)" />
          <path
             style="fill:#4d4d4d;stroke:none"
             inkscape:connector-curvature="0"
             d="m 1193,1965 c -64,-28 -93,-123 -57,-185 49,-81 187,-82 229,0 22,43 19,112 -6,144 -42,53 -103,69 -166,41 z"
             id="path1795"
             transform="matrix(3.9405346,0,0,3.9405346,-490.98058,3024.4739)" />
          <path
             style="fill:#000080;stroke:none"
             inkscape:connector-curvature="0"
             d="m 2112,2254 c -154,-41 -241,-141 -263,-304 -29,-203 86,-588 223,-752 145,-174 447,-290 670,-259 197,28 298,98 360,251 32,79 32,279 -1,395 -37,129 -80,245 -111,300 -97,170 -324,322 -552,369 -94,20 -254,20 -326,0 z m 304,-202 c 162,-83 189,-309 50,-428 -126,-108 -306,-74 -399,75 -18,30 -22,50 -22,121 0,74 3,91 27,131 30,51 79,93 136,114 51,20 156,14 208,-13 z"
             id="path1797"
             transform="matrix(3.9405346,0,0,3.9405346,-490.98058,3024.4739)" />
          <path
             style="fill:#4d4d4d;stroke:none"
             inkscape:connector-curvature="0"
             d="m 2158,1923 c -69,-43 -68,-156 3,-194 78,-41 169,15 169,106 0,53 -53,105 -106,105 -22,0 -51,-8 -66,-17 z"
             id="path1799"
             transform="matrix(3.9405346,0,0,3.9405346,-490.98058,3024.4739)" />
          <path
             style="fill:#b3b3b3;stroke:none"
             inkscape:connector-curvature="0"
             d="m 1504,976 c -76,-15 -107,-27 -141,-59 -30,-26 -31,-102 -4,-155 37,-71 146,-160 251,-204 31,-13 50,-27 50,-37 0,-36 -50,-119 -95,-159 -107,-94 -248,-92 -355,4 -51,46 -79,100 -87,164 -6,51 -23,69 -43,45 -9,-11 -9,-27 -1,-65 33,-155 139,-249 291,-258 61,-3 86,0 134,18 66,25 142,93 167,148 7,17 16,32 19,32 3,0 16,-21 29,-46 54,-102 164,-159 291,-152 84,5 137,27 199,83 64,58 120,205 91,240 -17,21 -40,7 -40,-24 0,-85 -67,-184 -155,-226 -151,-74 -339,14 -379,177 -6,26 -2,30 56,59 35,17 91,51 124,75 173,122 194,276 46,329 -64,23 -347,30 -448,11 z"
             id="path1801"
             transform="matrix(3.9405346,0,0,3.9405346,-490.98058,3024.4739)" />
          <path
             style="fill:#000080"
             inkscape:connector-curvature="0"
             d="m 4027.7729,3533.8108 c -5,-3 -26,-7 -46,-10 -118,-20 -200,-150 -169,-266 28,-102 134,-155 267,-133 119,21 190,96 200,210 9,113 -60,186 -187,198 -30,2 -59,3 -65,1 z"
             id="path1845" />
          <g
             style="fill:#000080"
             transform="translate(-567.22707,343.32165)"
             id="g1873">
            <path
               style="fill:#000080"
               id="path1841"
               d="m 6603,3745 c -251,-78 -523,-551 -667,-1160 -59,-253 -69,-335 -71,-585 l -1,-235 -80,-57 c -91,-67 -253,-150 -338,-174 -38,-10 -82,-15 -129,-12 -69,4 -70,4 -113,52 -24,26 -44,52 -44,56 0,5 21,16 48,26 143,51 235,108 328,202 75,76 119,150 140,235 15,59 15,78 5,135 -27,147 -123,237 -280,263 -177,29 -361,-71 -469,-257 -83,-142 -129,-334 -119,-489 l 6,-80 -70,-55 c -87,-68 -181,-120 -220,-120 -83,0 -99,112 -48,345 11,50 47,190 80,312 70,259 76,305 39,335 -22,18 -34,19 -90,14 -75,-8 -165,-48 -193,-87 -10,-14 -31,-75 -46,-136 -16,-61 -31,-115 -35,-121 -13,-22 -114,-72 -206,-103 -95,-32 -169,-38 -335,-28 -22,2 -49,-1 -59,-6 -29,-13 -19,7 59,115 284,394 514,873 556,1160 29,203 -57,353 -219,379 -350,55 -620,-415 -782,-1357 -100,-579 -140,-1185 -95,-1437 31,-179 83,-295 162,-365 52,-45 94,-60 174,-60 151,0 292,155 362,400 91,315 71,544 -74,832 l -38,77 42,5 c 153,19 214,29 290,50 48,12 87,20 87,16 0,-4 -10,-63 -21,-131 -36,-213 -17,-350 57,-408 120,-95 369,-44 626,126 l 69,46 16,-24 c 62,-93 187,-170 307,-190 184,-31 431,46 643,200 l 82,59 34,-73 c 58,-121 141,-194 223,-195 103,-1 325,93 519,220 61,40 111,73 113,75 2,1 -20,64 -49,138 -44,115 -55,134 -68,126 -9,-5 -59,-41 -111,-79 -105,-77 -231,-145 -285,-156 -46,-8 -70,13 -90,79 -42,143 -19,208 255,712 284,522 390,822 390,1106 0,237 -95,338 -267,284 z m -3,-386 c 0,-119 -66,-353 -165,-584 -54,-127 -206,-430 -230,-460 -15,-19 -16,-14 -10,75 27,428 215,965 359,1025 17,7 34,11 38,9 5,-3 8,-32 8,-65 z m -2605,1 c 27,-30 32,-126 10,-192 -9,-29 -39,-100 -66,-156 -48,-103 -338,-643 -363,-677 -11,-15 -11,1 0,91 30,253 84,464 186,733 51,134 72,174 104,200 36,28 104,29 129,1 z M 5428,2200 c 42,-84 22,-152 -70,-235 -59,-53 -158,-105 -200,-105 -27,0 -28,2 -28,53 1,195 106,341 240,334 31,-2 38,-7 58,-47 z M 3503,1802 c 38,-41 100,-281 128,-490 15,-115 7,-353 -16,-437 -18,-68 -40,-103 -78,-125 -78,-44 -106,84 -108,482 -1,272 26,588 50,588 5,0 15,-8 24,-18 z"
               inkscape:connector-curvature="0" />
            <path
               style="fill:#000080"
               id="path1843"
               d="m 2178,3077 c -74,-21 -122,-59 -152,-118 -83,-167 47,-315 248,-281 127,21 201,103 201,222 0,50 -5,73 -23,102 -43,69 -170,104 -274,75 z"
               inkscape:connector-curvature="0" />
            <path
               style="fill:#000080"
               id="path1847"
               d="m 10755,3086 c -5,-3 -26,-7 -46,-10 -118,-20 -200,-150 -169,-266 28,-102 134,-155 267,-133 119,21 190,96 200,210 9,113 -60,186 -187,198 -30,2 -59,3 -65,1 z"
               inkscape:connector-curvature="0" />
            <path
               style="fill:#000080"
               id="path1849"
               d="m 229,2486 c -14,-8 -33,-32 -42,-53 -64,-149 -143,-594 -154,-863 -7,-177 6,-240 62,-288 64,-57 162,-52 208,11 14,18 95,179 182,360 165,341 178,367 191,354 4,-4 -7,-105 -24,-225 -18,-121 -32,-257 -32,-308 0,-185 62,-259 187,-224 81,23 94,45 238,414 73,185 135,340 139,343 15,15 16,-16 5,-185 -19,-277 6,-462 72,-537 38,-42 74,-50 168,-36 96,15 166,43 255,101 72,47 75,48 82,27 11,-39 54,-87 97,-109 64,-34 194,-31 302,6 110,39 236,106 339,182 l 86,64 v 130 c 0,71 -2,130 -5,130 -3,0 -47,-36 -98,-80 -183,-160 -311,-230 -366,-201 -30,17 -44,83 -37,171 9,98 33,206 107,477 70,256 76,305 40,334 -29,24 -88,25 -162,3 -66,-19 -115,-55 -135,-97 -15,-35 -114,-427 -145,-577 -22,-108 -41,-135 -143,-201 -70,-46 -127,-64 -155,-49 -52,27 -57,184 -17,493 33,253 34,354 4,392 -40,51 -121,69 -177,41 -57,-30 -152,-158 -317,-428 -32,-54 -62,-98 -66,-98 -14,0 -8,47 17,152 39,158 50,268 31,311 -28,69 -109,94 -189,59 -68,-30 -151,-145 -327,-450 -23,-41 -46,-70 -51,-65 -4,4 1,61 12,128 11,66 22,174 25,240 8,155 5,159 -103,163 -54,1 -86,-2 -104,-12 z"
               inkscape:connector-curvature="0" />
            <path
               style="fill:#000080"
               id="path1851"
               d="m 7920,2489 c -190,-33 -400,-219 -522,-464 -170,-339 -139,-640 78,-750 141,-72 321,-26 495,125 l 56,48 25,-52 c 57,-115 116,-156 225,-156 76,0 138,24 231,87 28,20 53,34 55,32 1,-2 11,-21 21,-41 25,-50 91,-83 148,-75 82,11 81,8 323,510 71,147 130,257 138,257 11,0 8,-37 -15,-182 -35,-226 -46,-395 -28,-467 24,-100 83,-137 177,-111 81,23 94,45 239,414 73,186 135,340 138,343 16,16 17,-20 5,-189 -18,-267 6,-455 66,-526 40,-48 74,-57 164,-44 103,15 177,43 270,106 l 78,52 17,-43 c 49,-118 201,-152 393,-87 73,24 200,85 258,123 l 31,20 34,-47 c 119,-160 314,-174 494,-36 26,20 49,34 51,32 2,-2 -4,-29 -13,-59 -15,-49 -26,-63 -92,-119 -133,-112 -403,-391 -488,-505 -45,-60 -105,-155 -133,-211 -43,-84 -52,-112 -56,-170 -7,-88 9,-145 53,-193 94,-104 308,-118 481,-30 217,110 383,403 477,841 l 32,147 118,81 c 106,72 167,119 288,221 l 38,31 27,-33 c 15,-17 51,-47 80,-66 218,-139 508,-31 650,243 106,202 120,431 38,623 -40,96 -33,94 164,-53 76,-57 174,-138 217,-180 43,-41 79,-74 80,-73 1,1 6,40 12,87 12,99 16,90 -112,227 -137,145 -312,258 -466,300 -97,26 -274,24 -365,-4 -90,-28 -176,-80 -246,-149 -69,-69 -113,-140 -153,-251 -30,-86 -31,-92 -31,-273 l -1,-185 -85,-86 c -46,-47 -113,-105 -148,-128 l -64,-44 7,44 c 91,564 119,777 114,881 -4,104 -12,110 -129,118 l -91,5 -31,38 c -41,52 -64,59 -145,47 -234,-37 -470,-273 -589,-589 -26,-70 -53,-186 -53,-231 0,-23 -11,-37 -60,-75 -77,-59 -164,-105 -201,-105 -83,0 -99,112 -48,345 11,50 47,190 80,312 70,259 76,305 39,335 -22,18 -34,19 -90,14 -75,-8 -165,-48 -193,-87 -18,-25 -105,-352 -152,-573 -21,-98 -27,-113 -62,-149 -81,-85 -210,-150 -252,-127 -52,27 -58,196 -17,494 28,202 33,340 14,380 -6,14 -31,35 -55,47 -52,25 -111,22 -152,-9 -47,-34 -121,-134 -239,-324 -64,-103 -120,-188 -124,-188 -14,0 -8,47 17,152 14,57 30,143 35,192 9,78 8,93 -7,125 -23,47 -74,74 -131,68 -90,-9 -147,-73 -310,-347 -47,-80 -92,-156 -100,-169 -27,-45 -31,-6 -11,114 11,66 22,174 25,240 7,151 4,157 -90,163 -80,5 -109,-1 -136,-30 -43,-47 -107,-308 -150,-613 l -21,-150 -47,-48 c -62,-63 -138,-114 -182,-122 -29,-5 -39,-2 -55,15 -34,37 -27,201 19,450 29,154 37,223 34,282 -4,104 -12,110 -128,118 l -90,5 -38,43 c -42,48 -68,55 -152,41 z m 107,-261 c -3,-13 -22,-102 -41,-198 -50,-242 -72,-324 -107,-396 -61,-123 -156,-178 -212,-121 -93,92 -39,379 108,575 66,88 171,159 239,161 14,1 17,-4 13,-21 z m 3660,0 c -3,-13 -22,-102 -41,-198 -50,-242 -72,-324 -107,-396 -61,-123 -156,-178 -212,-121 -93,92 -39,379 108,575 66,88 171,159 239,161 14,1 17,-4 13,-21 z m 1090,2 c 114,-69 123,-363 18,-585 -36,-75 -94,-142 -132,-151 -65,-17 -144,27 -181,99 -20,38 -26,67 -30,145 -6,145 32,285 109,402 67,99 147,133 216,90 z M 11466,797 c -88,-321 -238,-527 -384,-527 -30,0 -55,41 -46,76 11,48 69,155 119,223 83,113 317,343 332,327 3,-2 -7,-47 -21,-99 z"
               inkscape:connector-curvature="0" />
          </g>
        </g>
      </g>
    </g>
  </g>
</svg>
