<?xml version="1.0" encoding="iso-8859-1"?>
<!-- Generator: Adobe Illustrator 19.0.0, SVG Export Plug-In . SVG Version: 6.00 Build 0)  -->
<svg version="1.1" id="Capa_1" xmlns="http://www.w3.org/2000/svg" xmlns:xlink="http://www.w3.org/1999/xlink" x="0px" y="0px"
	 viewBox="0 0 512 512" style="enable-background:new 0 0 512 512;" xml:space="preserve">
<g>
	<g>
		<path d="M31.987,90L87.47,473.372C90.619,495.389,109.765,512,132.016,512h247.969c22.251,0,41.396-16.611,44.546-38.628
			L480.013,90H31.987z M216.61,174.687c17.298-30.256,60.908-30.24,78.164,0.059l24.269,41.089l1.732-6.475
			c2.139-7.983,10.459-12.671,18.369-10.605c7.998,2.139,12.744,10.356,10.605,18.369l-10.931,40.834l-0.004,0.015l-0.037,0.137
			c-2.025,7.577-10.151,12.777-18.369,10.605l-40.986-10.986c-7.998-2.139-12.759-10.371-10.605-18.369
			c2.153-8.013,10.371-12.744,18.369-10.605l5.513,1.478l-23.868-40.428c-5.993-10.519-20.464-10.223-26.177-0.234
			c-4.116,7.207-13.271,9.712-20.464,5.581C214.999,191.034,212.494,181.879,216.61,174.687z M218.148,284.257
			c-7.945,2.142-16.207-2.552-18.369-10.605l-1.595-5.945l-23.542,40.897c-5.671,9.935,1.516,22.397,13.052,22.397
			c8.291,0,15,6.709,15,15c0,8.291-6.709,15-15,15c-34.6,0-56.204-37.352-39.067-67.324l23.628-41.043l-6.064,1.624
			c-8.013,2.183-16.23-2.607-18.369-10.605c-2.139-7.998,2.607-16.23,10.605-18.369l40.972-10.972
			c8.102-2.133,16.306,2.913,18.367,10.604l0.002,0.002l10.986,40.972C230.907,273.886,226.146,282.118,218.148,284.257z
			 M324.027,361h-46.816l4.395,4.395c5.859,5.859,5.859,15.352,0,21.211s-15.352,5.859-21.211,0l-29.982-29.982
			c-5.923-5.909-5.775-15.489,0-21.248l29.982-29.982c5.859-5.859,15.352-5.859,21.211,0s5.859,15.352,0,21.211L277.211,331h46.816
			c11.576,0,18.759-12.51,13.008-22.5c-4.146-7.163-1.67-16.348,5.508-20.479c7.192-4.146,16.348-1.655,20.479,5.508
			C380.297,323.443,358.766,361,324.027,361z"/>
	</g>
</g>
<g>
	<g>
		<path d="M482,0H30C13.431,0,0,13.431,0,30v15c0,8.284,6.716,15,15,15h482c8.284,0,15-6.716,15-15V30C512,13.431,498.569,0,482,0z"
			/>
	</g>
</g>
<g>
</g>
<g>
</g>
<g>
</g>
<g>
</g>
<g>
</g>
<g>
</g>
<g>
</g>
<g>
</g>
<g>
</g>
<g>
</g>
<g>
</g>
<g>
</g>
<g>
</g>
<g>
</g>
<g>
</g>
</svg>
